<mxfile host="app.diagrams.net" agent="Mozilla/5.0 (Windows NT 10.0; Win64; x64) AppleWebKit/537.36 (KHTML, like Gecko) Chrome/140.0.0.0 Safari/537.36 Edg/140.0.0.0" version="28.2.3">
  <diagram name="第 1 页" id="wPH9WUTgLwjYPj1jr5JV">
    <mxGraphModel dx="2620" dy="1751" grid="1" gridSize="10" guides="1" tooltips="1" connect="1" arrows="1" fold="1" page="1" pageScale="1" pageWidth="827" pageHeight="1169" math="0" shadow="0">
      <root>
        <Relationship label="形成" id="5">
          <EntityRef entity="1" cardinality="1..1" />
          <EntityRef entity="3" cardinality="1..1" />
          <mxCell />
        </Relationship>
      </root>
    </mxGraphModel>
  </diagram>
</mxfile>
